<svg xmlns="http://www.w3.org/2000/svg" xmlns:xlink="http://www.w3.org/1999/xlink" width="500" zoomAndPan="magnify" viewBox="0 0 375 374.999991" height="500" preserveAspectRatio="xMidYMid meet" version="1.0"><defs><g/></defs><rect x="-37.5" width="450" fill="#ffffff" y="-37.499999" height="449.999989" fill-opacity="1"/><rect x="-37.5" width="450" fill="#ffffff" y="-37.499999" height="449.999989" fill-opacity="1"/><g fill="#38b6ff" fill-opacity="1"><g transform="translate(33.313935, 203.256404)"><g><path d="M 48.28125 -11.640625 L 20.65625 -11.640625 L 16.0625 0 L -0.453125 0 L 26.796875 -63.15625 L 43.3125 -63.15625 L 69.9375 0 L 52.78125 0 Z M 43.578125 -23.828125 L 34.5625 -47.1875 L 25.359375 -23.828125 Z M 43.578125 -23.828125 "/></g></g></g><g fill="#38b6ff" fill-opacity="1"><g transform="translate(107.570907, 203.256404)"><g><path d="M 22.375 0 L 6.3125 0 L 6.3125 -63.15625 L 22.375 -63.15625 Z M 22.375 0 "/></g></g></g><g fill="#1a3038" fill-opacity="1"><g transform="translate(141.055068, 203.256404)"><g><path d="M 6.3125 -63.15625 L 36.1875 -63.15625 C 43.28125 -63.15625 48.914062 -61.726562 53.09375 -58.875 C 57.28125 -56.019531 59.375 -52.1875 59.375 -47.375 C 59.375 -44.0625 58.410156 -41.15625 56.484375 -38.65625 C 54.554688 -36.164062 51.910156 -34.441406 48.546875 -33.484375 C 52.515625 -32.691406 55.671875 -30.851562 58.015625 -27.96875 C 60.367188 -25.082031 61.546875 -21.59375 61.546875 -17.5 C 61.546875 -12.144531 59.363281 -7.890625 55 -4.734375 C 50.632812 -1.578125 44.722656 0 37.265625 0 L 6.3125 0 Z M 22.28125 -50.890625 L 22.28125 -37.890625 L 35.28125 -37.890625 C 37.625 -37.890625 39.488281 -38.476562 40.875 -39.65625 C 42.257812 -40.832031 42.953125 -42.441406 42.953125 -44.484375 C 42.953125 -46.472656 42.257812 -48.035156 40.875 -49.171875 C 39.488281 -50.316406 37.625 -50.890625 35.28125 -50.890625 Z M 22.28125 -26.34375 L 22.28125 -12.359375 L 35.28125 -12.359375 C 38.289062 -12.359375 40.648438 -12.988281 42.359375 -14.25 C 44.078125 -15.519531 44.9375 -17.265625 44.9375 -19.484375 C 44.9375 -21.597656 44.078125 -23.269531 42.359375 -24.5 C 40.648438 -25.726562 38.289062 -26.34375 35.28125 -26.34375 Z M 22.28125 -26.34375 "/></g></g></g><g fill="#1a3038" fill-opacity="1"><g transform="translate(210.349547, 203.256404)"><g><path d="M 63.15625 -63.15625 L 63.15625 -26.53125 C 63.15625 -18.164062 60.566406 -11.53125 55.390625 -6.625 C 50.222656 -1.726562 43.21875 0.71875 34.375 0.71875 C 25.476562 0.71875 18.394531 -1.726562 13.125 -6.625 C 7.863281 -11.53125 5.234375 -18.164062 5.234375 -26.53125 L 5.234375 -63.15625 L 21.296875 -63.15625 L 21.296875 -26.53125 C 21.296875 -22.320312 22.515625 -18.96875 24.953125 -16.46875 C 27.390625 -13.96875 30.5625 -12.71875 34.46875 -12.71875 C 38.320312 -12.71875 41.40625 -13.953125 43.71875 -16.421875 C 46.03125 -18.890625 47.1875 -22.257812 47.1875 -26.53125 L 47.1875 -63.15625 Z M 63.15625 -63.15625 "/></g></g></g><g fill="#1a3038" fill-opacity="1"><g transform="translate(283.523777, 203.256404)"><g><path d="M 30.59375 -63.890625 C 40.03125 -63.890625 48.332031 -61.539062 55.5 -56.84375 L 49.453125 -44.3125 C 46.140625 -46.226562 42.585938 -47.800781 38.796875 -49.03125 C 35.003906 -50.269531 31.816406 -50.890625 29.234375 -50.890625 C 24.597656 -50.890625 22.28125 -49.359375 22.28125 -46.296875 C 22.28125 -44.304688 23.421875 -42.707031 25.703125 -41.5 C 27.992188 -40.300781 30.78125 -39.265625 34.0625 -38.390625 C 37.34375 -37.523438 40.617188 -36.472656 43.890625 -35.234375 C 47.171875 -34.003906 49.953125 -32.003906 52.234375 -29.234375 C 54.523438 -26.460938 55.671875 -22.972656 55.671875 -18.765625 C 55.671875 -12.691406 53.296875 -7.953125 48.546875 -4.546875 C 43.796875 -1.148438 37.75 0.546875 30.40625 0.546875 C 25.175781 0.546875 20.003906 -0.351562 14.890625 -2.15625 C 9.773438 -3.96875 5.320312 -6.4375 1.53125 -9.5625 L 7.765625 -21.921875 C 10.953125 -19.160156 14.707031 -16.890625 19.03125 -15.109375 C 23.363281 -13.335938 27.21875 -12.453125 30.59375 -12.453125 C 33.175781 -12.453125 35.1875 -12.914062 36.625 -13.84375 C 38.070312 -14.78125 38.796875 -16.148438 38.796875 -17.953125 C 38.796875 -19.703125 37.96875 -21.160156 36.3125 -22.328125 C 34.664062 -23.503906 32.609375 -24.378906 30.140625 -24.953125 C 27.671875 -25.523438 24.992188 -26.289062 22.109375 -27.25 C 19.222656 -28.207031 16.546875 -29.257812 14.078125 -30.40625 C 11.609375 -31.550781 9.546875 -33.367188 7.890625 -35.859375 C 6.234375 -38.359375 5.40625 -41.351562 5.40625 -44.84375 C 5.40625 -50.625 7.707031 -55.242188 12.3125 -58.703125 C 16.914062 -62.160156 23.007812 -63.890625 30.59375 -63.890625 Z M 30.59375 -63.890625 "/></g></g></g><g fill="#1a3038" fill-opacity="1"><g transform="translate(32.785164, 219.594807)"><g><path d="M 6.421875 -1.546875 L 2.75 -1.546875 L 2.140625 0 L -0.0625 0 L 3.5625 -8.40625 L 5.765625 -8.40625 L 9.296875 0 L 7.015625 0 Z M 5.796875 -3.171875 L 4.59375 -6.28125 L 3.375 -3.171875 Z M 5.796875 -3.171875 "/></g></g></g><g fill="#1a3038" fill-opacity="1"><g transform="translate(47.9322, 219.594807)"><g><path d="M 2.96875 0 L 0.84375 0 L 0.84375 -8.40625 L 2.96875 -8.40625 Z M 2.96875 0 "/></g></g></g><g fill="#1a3038" fill-opacity="1"><g transform="translate(57.654977, 219.594807)"><g/></g></g><g fill="#1a3038" fill-opacity="1"><g transform="translate(66.345708, 219.594807)"><g><path d="M 0.84375 -8.40625 L 4.8125 -8.40625 C 5.757812 -8.40625 6.507812 -8.210938 7.0625 -7.828125 C 7.613281 -7.453125 7.890625 -6.941406 7.890625 -6.296875 C 7.890625 -5.859375 7.757812 -5.472656 7.5 -5.140625 C 7.25 -4.804688 6.898438 -4.578125 6.453125 -4.453125 C 6.984375 -4.347656 7.40625 -4.101562 7.71875 -3.71875 C 8.03125 -3.332031 8.1875 -2.867188 8.1875 -2.328125 C 8.1875 -1.617188 7.894531 -1.050781 7.3125 -0.625 C 6.726562 -0.207031 5.941406 0 4.953125 0 L 0.84375 0 Z M 2.96875 -6.765625 L 2.96875 -5.046875 L 4.6875 -5.046875 C 5 -5.046875 5.25 -5.125 5.4375 -5.28125 C 5.625 -5.4375 5.71875 -5.648438 5.71875 -5.921875 C 5.71875 -6.179688 5.625 -6.382812 5.4375 -6.53125 C 5.25 -6.6875 5 -6.765625 4.6875 -6.765625 Z M 2.96875 -3.5 L 2.96875 -1.640625 L 4.6875 -1.640625 C 5.09375 -1.640625 5.40625 -1.722656 5.625 -1.890625 C 5.851562 -2.054688 5.96875 -2.289062 5.96875 -2.59375 C 5.96875 -2.875 5.851562 -3.09375 5.625 -3.25 C 5.40625 -3.414062 5.09375 -3.5 4.6875 -3.5 Z M 2.96875 -3.5 "/></g></g></g><g fill="#1a3038" fill-opacity="1"><g transform="translate(80.832711, 219.594807)"><g><path d="M 8.40625 -8.40625 L 8.40625 -3.53125 C 8.40625 -2.414062 8.0625 -1.53125 7.375 -0.875 C 6.6875 -0.226562 5.753906 0.09375 4.578125 0.09375 C 3.390625 0.09375 2.445312 -0.226562 1.75 -0.875 C 1.050781 -1.53125 0.703125 -2.414062 0.703125 -3.53125 L 0.703125 -8.40625 L 2.828125 -8.40625 L 2.828125 -3.53125 C 2.828125 -2.96875 2.988281 -2.519531 3.3125 -2.1875 C 3.632812 -1.851562 4.054688 -1.6875 4.578125 -1.6875 C 5.097656 -1.6875 5.507812 -1.847656 5.8125 -2.171875 C 6.125 -2.503906 6.28125 -2.957031 6.28125 -3.53125 L 6.28125 -8.40625 Z M 8.40625 -8.40625 "/></g></g></g><g fill="#1a3038" fill-opacity="1"><g transform="translate(95.835736, 219.594807)"><g><path d="M 4.0625 -8.5 C 5.320312 -8.5 6.425781 -8.1875 7.375 -7.5625 L 6.578125 -5.890625 C 6.140625 -6.148438 5.664062 -6.359375 5.15625 -6.515625 C 4.65625 -6.679688 4.234375 -6.765625 3.890625 -6.765625 C 3.273438 -6.765625 2.96875 -6.5625 2.96875 -6.15625 C 2.96875 -5.894531 3.117188 -5.679688 3.421875 -5.515625 C 3.722656 -5.359375 4.09375 -5.222656 4.53125 -5.109375 C 4.96875 -4.992188 5.398438 -4.851562 5.828125 -4.6875 C 6.265625 -4.519531 6.632812 -4.253906 6.9375 -3.890625 C 7.25 -3.523438 7.40625 -3.0625 7.40625 -2.5 C 7.40625 -1.6875 7.085938 -1.050781 6.453125 -0.59375 C 5.828125 -0.144531 5.023438 0.078125 4.046875 0.078125 C 3.347656 0.078125 2.65625 -0.0390625 1.96875 -0.28125 C 1.289062 -0.519531 0.703125 -0.847656 0.203125 -1.265625 L 1.03125 -2.921875 C 1.457031 -2.546875 1.957031 -2.238281 2.53125 -2 C 3.101562 -1.769531 3.613281 -1.65625 4.0625 -1.65625 C 4.40625 -1.65625 4.671875 -1.71875 4.859375 -1.84375 C 5.054688 -1.96875 5.15625 -2.148438 5.15625 -2.390625 C 5.15625 -2.617188 5.046875 -2.8125 4.828125 -2.96875 C 4.609375 -3.125 4.332031 -3.238281 4 -3.3125 C 3.675781 -3.394531 3.320312 -3.5 2.9375 -3.625 C 2.550781 -3.75 2.191406 -3.882812 1.859375 -4.03125 C 1.535156 -4.1875 1.265625 -4.429688 1.046875 -4.765625 C 0.828125 -5.097656 0.71875 -5.5 0.71875 -5.96875 C 0.71875 -6.726562 1.023438 -7.335938 1.640625 -7.796875 C 2.253906 -8.265625 3.0625 -8.5 4.0625 -8.5 Z M 4.0625 -8.5 "/></g></g></g><g fill="#1a3038" fill-opacity="1"><g transform="translate(109.470702, 219.594807)"><g><path d="M 2.96875 0 L 0.84375 0 L 0.84375 -8.40625 L 2.96875 -8.40625 Z M 2.96875 0 "/></g></g></g><g fill="#1a3038" fill-opacity="1"><g transform="translate(119.193478, 219.594807)"><g><path d="M 8.59375 0 L 6.703125 0 L 2.84375 -5.171875 L 2.84375 0 L 0.84375 0 L 0.84375 -8.40625 L 2.71875 -8.40625 L 6.59375 -3.21875 L 6.59375 -8.40625 L 8.59375 -8.40625 Z M 8.59375 0 "/></g></g></g><g fill="#1a3038" fill-opacity="1"><g transform="translate(134.532518, 219.594807)"><g><path d="M 7.421875 -6.71875 L 2.96875 -6.71875 L 2.96875 -5.046875 L 6.984375 -5.046875 L 6.984375 -3.375 L 2.96875 -3.375 L 2.96875 -1.6875 L 7.546875 -1.6875 L 7.546875 0 L 0.84375 0 L 0.84375 -8.40625 L 7.421875 -8.40625 Z M 7.421875 -6.71875 "/></g></g></g><g fill="#1a3038" fill-opacity="1"><g transform="translate(148.5275, 219.594807)"><g><path d="M 4.0625 -8.5 C 5.320312 -8.5 6.425781 -8.1875 7.375 -7.5625 L 6.578125 -5.890625 C 6.140625 -6.148438 5.664062 -6.359375 5.15625 -6.515625 C 4.65625 -6.679688 4.234375 -6.765625 3.890625 -6.765625 C 3.273438 -6.765625 2.96875 -6.5625 2.96875 -6.15625 C 2.96875 -5.894531 3.117188 -5.679688 3.421875 -5.515625 C 3.722656 -5.359375 4.09375 -5.222656 4.53125 -5.109375 C 4.96875 -4.992188 5.398438 -4.851562 5.828125 -4.6875 C 6.265625 -4.519531 6.632812 -4.253906 6.9375 -3.890625 C 7.25 -3.523438 7.40625 -3.0625 7.40625 -2.5 C 7.40625 -1.6875 7.085938 -1.050781 6.453125 -0.59375 C 5.828125 -0.144531 5.023438 0.078125 4.046875 0.078125 C 3.347656 0.078125 2.65625 -0.0390625 1.96875 -0.28125 C 1.289062 -0.519531 0.703125 -0.847656 0.203125 -1.265625 L 1.03125 -2.921875 C 1.457031 -2.546875 1.957031 -2.238281 2.53125 -2 C 3.101562 -1.769531 3.613281 -1.65625 4.0625 -1.65625 C 4.40625 -1.65625 4.671875 -1.71875 4.859375 -1.84375 C 5.054688 -1.96875 5.15625 -2.148438 5.15625 -2.390625 C 5.15625 -2.617188 5.046875 -2.8125 4.828125 -2.96875 C 4.609375 -3.125 4.332031 -3.238281 4 -3.3125 C 3.675781 -3.394531 3.320312 -3.5 2.9375 -3.625 C 2.550781 -3.75 2.191406 -3.882812 1.859375 -4.03125 C 1.535156 -4.1875 1.265625 -4.429688 1.046875 -4.765625 C 0.828125 -5.097656 0.71875 -5.5 0.71875 -5.96875 C 0.71875 -6.726562 1.023438 -7.335938 1.640625 -7.796875 C 2.253906 -8.265625 3.0625 -8.5 4.0625 -8.5 Z M 4.0625 -8.5 "/></g></g></g><g fill="#1a3038" fill-opacity="1"><g transform="translate(162.162465, 219.594807)"><g><path d="M 4.0625 -8.5 C 5.320312 -8.5 6.425781 -8.1875 7.375 -7.5625 L 6.578125 -5.890625 C 6.140625 -6.148438 5.664062 -6.359375 5.15625 -6.515625 C 4.65625 -6.679688 4.234375 -6.765625 3.890625 -6.765625 C 3.273438 -6.765625 2.96875 -6.5625 2.96875 -6.15625 C 2.96875 -5.894531 3.117188 -5.679688 3.421875 -5.515625 C 3.722656 -5.359375 4.09375 -5.222656 4.53125 -5.109375 C 4.96875 -4.992188 5.398438 -4.851562 5.828125 -4.6875 C 6.265625 -4.519531 6.632812 -4.253906 6.9375 -3.890625 C 7.25 -3.523438 7.40625 -3.0625 7.40625 -2.5 C 7.40625 -1.6875 7.085938 -1.050781 6.453125 -0.59375 C 5.828125 -0.144531 5.023438 0.078125 4.046875 0.078125 C 3.347656 0.078125 2.65625 -0.0390625 1.96875 -0.28125 C 1.289062 -0.519531 0.703125 -0.847656 0.203125 -1.265625 L 1.03125 -2.921875 C 1.457031 -2.546875 1.957031 -2.238281 2.53125 -2 C 3.101562 -1.769531 3.613281 -1.65625 4.0625 -1.65625 C 4.40625 -1.65625 4.671875 -1.71875 4.859375 -1.84375 C 5.054688 -1.96875 5.15625 -2.148438 5.15625 -2.390625 C 5.15625 -2.617188 5.046875 -2.8125 4.828125 -2.96875 C 4.609375 -3.125 4.332031 -3.238281 4 -3.3125 C 3.675781 -3.394531 3.320312 -3.5 2.9375 -3.625 C 2.550781 -3.75 2.191406 -3.882812 1.859375 -4.03125 C 1.535156 -4.1875 1.265625 -4.429688 1.046875 -4.765625 C 0.828125 -5.097656 0.71875 -5.5 0.71875 -5.96875 C 0.71875 -6.726562 1.023438 -7.335938 1.640625 -7.796875 C 2.253906 -8.265625 3.0625 -8.5 4.0625 -8.5 Z M 4.0625 -8.5 "/></g></g></g><g fill="#1a3038" fill-opacity="1"><g transform="translate(175.797431, 219.594807)"><g/></g></g><g fill="#1a3038" fill-opacity="1"><g transform="translate(184.488163, 219.594807)"><g><path d="M 5.90625 0 L 4.65625 -2.359375 L 2.96875 -2.359375 L 2.96875 0 L 0.84375 0 L 0.84375 -8.40625 L 4.59375 -8.40625 C 5.707031 -8.40625 6.566406 -8.148438 7.171875 -7.640625 C 7.785156 -7.128906 8.09375 -6.40625 8.09375 -5.46875 C 8.09375 -4.175781 7.582031 -3.273438 6.5625 -2.765625 L 8.328125 0 Z M 2.96875 -4.046875 L 4.59375 -4.046875 C 5.0625 -4.046875 5.421875 -4.160156 5.671875 -4.390625 C 5.929688 -4.617188 6.0625 -4.957031 6.0625 -5.40625 C 6.0625 -5.832031 5.929688 -6.15625 5.671875 -6.375 C 5.421875 -6.601562 5.0625 -6.71875 4.59375 -6.71875 L 2.96875 -6.71875 Z M 2.96875 -4.046875 "/></g></g></g><g fill="#1a3038" fill-opacity="1"><g transform="translate(199.083167, 219.594807)"><g><path d="M 7.421875 -6.71875 L 2.96875 -6.71875 L 2.96875 -5.046875 L 6.984375 -5.046875 L 6.984375 -3.375 L 2.96875 -3.375 L 2.96875 -1.6875 L 7.546875 -1.6875 L 7.546875 0 L 0.84375 0 L 0.84375 -8.40625 L 7.421875 -8.40625 Z M 7.421875 -6.71875 "/></g></g></g><g fill="#1a3038" fill-opacity="1"><g transform="translate(213.078149, 219.594807)"><g><path d="M 6.421875 -4.265625 L 8.265625 -4.265625 L 8.265625 -1 C 7.804688 -0.675781 7.253906 -0.410156 6.609375 -0.203125 C 5.972656 -0.00390625 5.363281 0.09375 4.78125 0.09375 C 3.5 0.09375 2.425781 -0.3125 1.5625 -1.125 C 0.707031 -1.945312 0.28125 -2.972656 0.28125 -4.203125 C 0.28125 -5.421875 0.71875 -6.4375 1.59375 -7.25 C 2.476562 -8.0625 3.585938 -8.46875 4.921875 -8.46875 C 5.546875 -8.46875 6.164062 -8.351562 6.78125 -8.125 C 7.394531 -7.90625 7.921875 -7.601562 8.359375 -7.21875 L 7.15625 -5.765625 C 6.851562 -6.046875 6.5 -6.269531 6.09375 -6.4375 C 5.695312 -6.601562 5.300781 -6.6875 4.90625 -6.6875 C 4.21875 -6.6875 3.640625 -6.445312 3.171875 -5.96875 C 2.703125 -5.488281 2.46875 -4.898438 2.46875 -4.203125 C 2.46875 -3.484375 2.703125 -2.882812 3.171875 -2.40625 C 3.648438 -1.925781 4.238281 -1.6875 4.9375 -1.6875 C 5.382812 -1.6875 5.878906 -1.820312 6.421875 -2.09375 Z M 6.421875 -4.265625 "/></g></g></g><g fill="#1a3038" fill-opacity="1"><g transform="translate(227.901166, 219.594807)"><g><path d="M 2.96875 0 L 0.84375 0 L 0.84375 -8.40625 L 2.96875 -8.40625 Z M 2.96875 0 "/></g></g></g><g fill="#1a3038" fill-opacity="1"><g transform="translate(237.623943, 219.594807)"><g><path d="M 4.0625 -8.5 C 5.320312 -8.5 6.425781 -8.1875 7.375 -7.5625 L 6.578125 -5.890625 C 6.140625 -6.148438 5.664062 -6.359375 5.15625 -6.515625 C 4.65625 -6.679688 4.234375 -6.765625 3.890625 -6.765625 C 3.273438 -6.765625 2.96875 -6.5625 2.96875 -6.15625 C 2.96875 -5.894531 3.117188 -5.679688 3.421875 -5.515625 C 3.722656 -5.359375 4.09375 -5.222656 4.53125 -5.109375 C 4.96875 -4.992188 5.398438 -4.851562 5.828125 -4.6875 C 6.265625 -4.519531 6.632812 -4.253906 6.9375 -3.890625 C 7.25 -3.523438 7.40625 -3.0625 7.40625 -2.5 C 7.40625 -1.6875 7.085938 -1.050781 6.453125 -0.59375 C 5.828125 -0.144531 5.023438 0.078125 4.046875 0.078125 C 3.347656 0.078125 2.65625 -0.0390625 1.96875 -0.28125 C 1.289062 -0.519531 0.703125 -0.847656 0.203125 -1.265625 L 1.03125 -2.921875 C 1.457031 -2.546875 1.957031 -2.238281 2.53125 -2 C 3.101562 -1.769531 3.613281 -1.65625 4.0625 -1.65625 C 4.40625 -1.65625 4.671875 -1.71875 4.859375 -1.84375 C 5.054688 -1.96875 5.15625 -2.148438 5.15625 -2.390625 C 5.15625 -2.617188 5.046875 -2.8125 4.828125 -2.96875 C 4.609375 -3.125 4.332031 -3.238281 4 -3.3125 C 3.675781 -3.394531 3.320312 -3.5 2.9375 -3.625 C 2.550781 -3.75 2.191406 -3.882812 1.859375 -4.03125 C 1.535156 -4.1875 1.265625 -4.429688 1.046875 -4.765625 C 0.828125 -5.097656 0.71875 -5.5 0.71875 -5.96875 C 0.71875 -6.726562 1.023438 -7.335938 1.640625 -7.796875 C 2.253906 -8.265625 3.0625 -8.5 4.0625 -8.5 Z M 4.0625 -8.5 "/></g></g></g><g fill="#1a3038" fill-opacity="1"><g transform="translate(251.258908, 219.594807)"><g><path d="M 7.265625 -6.6875 L 4.734375 -6.6875 L 4.734375 0 L 2.59375 0 L 2.59375 -6.6875 L 0.078125 -6.6875 L 0.078125 -8.40625 L 7.265625 -8.40625 Z M 7.265625 -6.6875 "/></g></g></g><g fill="#1a3038" fill-opacity="1"><g transform="translate(264.497848, 219.594807)"><g><path d="M 5.90625 0 L 4.65625 -2.359375 L 2.96875 -2.359375 L 2.96875 0 L 0.84375 0 L 0.84375 -8.40625 L 4.59375 -8.40625 C 5.707031 -8.40625 6.566406 -8.148438 7.171875 -7.640625 C 7.785156 -7.128906 8.09375 -6.40625 8.09375 -5.46875 C 8.09375 -4.175781 7.582031 -3.273438 6.5625 -2.765625 L 8.328125 0 Z M 2.96875 -4.046875 L 4.59375 -4.046875 C 5.0625 -4.046875 5.421875 -4.160156 5.671875 -4.390625 C 5.929688 -4.617188 6.0625 -4.957031 6.0625 -5.40625 C 6.0625 -5.832031 5.929688 -6.15625 5.671875 -6.375 C 5.421875 -6.601562 5.0625 -6.71875 4.59375 -6.71875 L 2.96875 -6.71875 Z M 2.96875 -4.046875 "/></g></g></g><g fill="#1a3038" fill-opacity="1"><g transform="translate(279.092853, 219.594807)"><g><path d="M 6.421875 -1.546875 L 2.75 -1.546875 L 2.140625 0 L -0.0625 0 L 3.5625 -8.40625 L 5.765625 -8.40625 L 9.296875 0 L 7.015625 0 Z M 5.796875 -3.171875 L 4.59375 -6.28125 L 3.375 -3.171875 Z M 5.796875 -3.171875 "/></g></g></g><g fill="#1a3038" fill-opacity="1"><g transform="translate(294.23989, 219.594807)"><g><path d="M 7.265625 -6.6875 L 4.734375 -6.6875 L 4.734375 0 L 2.59375 0 L 2.59375 -6.6875 L 0.078125 -6.6875 L 0.078125 -8.40625 L 7.265625 -8.40625 Z M 7.265625 -6.6875 "/></g></g></g><g fill="#1a3038" fill-opacity="1"><g transform="translate(307.478829, 219.594807)"><g><path d="M 2.96875 0 L 0.84375 0 L 0.84375 -8.40625 L 2.96875 -8.40625 Z M 2.96875 0 "/></g></g></g><g fill="#1a3038" fill-opacity="1"><g transform="translate(317.201606, 219.594807)"><g><path d="M 4.828125 -8.46875 C 6.128906 -8.46875 7.210938 -8.0625 8.078125 -7.25 C 8.941406 -6.4375 9.375 -5.425781 9.375 -4.21875 C 9.375 -2.988281 8.9375 -1.960938 8.0625 -1.140625 C 7.195312 -0.316406 6.113281 0.09375 4.8125 0.09375 C 3.519531 0.09375 2.441406 -0.3125 1.578125 -1.125 C 0.710938 -1.945312 0.28125 -2.976562 0.28125 -4.21875 C 0.28125 -5.4375 0.710938 -6.445312 1.578125 -7.25 C 2.441406 -8.0625 3.523438 -8.46875 4.828125 -8.46875 Z M 4.84375 -6.6875 C 4.1875 -6.6875 3.625 -6.445312 3.15625 -5.96875 C 2.695312 -5.488281 2.46875 -4.894531 2.46875 -4.1875 C 2.46875 -3.488281 2.703125 -2.894531 3.171875 -2.40625 C 3.640625 -1.925781 4.195312 -1.6875 4.84375 -1.6875 C 5.488281 -1.6875 6.035156 -1.925781 6.484375 -2.40625 C 6.941406 -2.894531 7.171875 -3.488281 7.171875 -4.1875 C 7.171875 -4.894531 6.941406 -5.488281 6.484375 -5.96875 C 6.035156 -6.445312 5.488281 -6.6875 4.84375 -6.6875 Z M 4.84375 -6.6875 "/></g></g></g><g fill="#1a3038" fill-opacity="1"><g transform="translate(332.768671, 219.594807)"><g><path d="M 8.59375 0 L 6.703125 0 L 2.84375 -5.171875 L 2.84375 0 L 0.84375 0 L 0.84375 -8.40625 L 2.71875 -8.40625 L 6.59375 -3.21875 L 6.59375 -8.40625 L 8.59375 -8.40625 Z M 8.59375 0 "/></g></g></g></svg>